<svg width="50" height="50" viewBox="0 0 50 50" fill="none" xmlns="http://www.w3.org/2000/svg">
<rect width="50" height="50" rx="4" fill="#C6D6E6"/>
<path d="M32.5 30H34.5C35.1 30 35.5 29.6 35.5 29V26C35.5 25.1 34.8 24.3 34 24.1C32.2 23.6 29.5 23 29.5 23C29.5 23 28.2 21.6 27.3 20.7C26.8 20.3 26.2 20 25.5 20H18.5C17.9 20 17.4 20.4 17.1 20.9L15.7 23.8C15.5676 24.1862 15.5 24.5917 15.5 25V29C15.5 29.6 15.9 30 16.5 30H18.5M32.5 30C32.5 31.1046 31.6046 32 30.5 32C29.3954 32 28.5 31.1046 28.5 30M32.5 30C32.5 28.8954 31.6046 28 30.5 28C29.3954 28 28.5 28.8954 28.5 30M18.5 30C18.5 31.1046 19.3954 32 20.5 32C21.6046 32 22.5 31.1046 22.5 30M18.5 30C18.5 28.8954 19.3954 28 20.5 28C21.6046 28 22.5 28.8954 22.5 30M22.5 30H28.5" stroke="#001F3F" stroke-width="2" stroke-linecap="round" stroke-linejoin="round"/>
</svg>
