<svg width="50" height="50" viewBox="0 0 50 50" fill="none" xmlns="http://www.w3.org/2000/svg">
<rect width="50" height="50" rx="4" fill="#C6D6E6"/>
<path d="M29.8334 34.75V32.5833C29.8334 31.4341 29.3769 30.3319 28.5642 29.5192C27.7516 28.7065 26.6494 28.25 25.5001 28.25H19.0001C17.8508 28.25 16.7486 28.7065 15.936 29.5192C15.1233 30.3319 14.6667 31.4341 14.6667 32.5833V34.75M36.3334 34.7499V32.5832C36.3327 31.6231 36.0131 30.6904 35.4249 29.9315C34.8367 29.1727 34.0131 28.6307 33.0834 28.3907M29.8334 15.3907C30.7655 15.6294 31.5917 16.1715 32.1817 16.9315C32.7717 17.6916 33.0919 18.6264 33.0919 19.5886C33.0919 20.5508 32.7717 21.4856 32.1817 22.2457C31.5917 23.0058 30.7655 23.5479 29.8334 23.7865M26.5834 19.5833C26.5834 21.9766 24.6433 23.9167 22.2501 23.9167C19.8568 23.9167 17.9167 21.9766 17.9167 19.5833C17.9167 17.1901 19.8568 15.25 22.2501 15.25C24.6433 15.25 26.5834 17.1901 26.5834 19.5833Z" stroke="#001F3F" stroke-width="1.5" stroke-linecap="round" stroke-linejoin="round"/>
</svg>
