<svg width="50" height="50" viewBox="0 0 50 50" fill="none" xmlns="http://www.w3.org/2000/svg">
<rect width="50" height="50" rx="4" fill="#C6D6E6"/>
<path d="M19 35.8333V16.3333C19 15.7587 19.2282 15.2076 19.6346 14.8013C20.0409 14.3949 20.592 14.1667 21.1666 14.1667H29.8333C30.4079 14.1667 30.959 14.3949 31.3654 14.8013C31.7717 15.2076 32 15.7587 32 16.3333V35.8333M19 35.8333H32M19 35.8333H16.8333C16.2587 35.8333 15.7076 35.6051 15.3012 35.1987C14.8949 34.7924 14.6666 34.2413 14.6666 33.6667V27.1667C14.6666 26.592 14.8949 26.0409 15.3012 25.6346C15.7076 25.2283 16.2587 25 16.8333 25H19M32 35.8333H34.1666C34.7413 35.8333 35.2924 35.6051 35.6987 35.1987C36.105 34.7924 36.3333 34.2413 36.3333 33.6667V23.9167C36.3333 23.342 36.105 22.7909 35.6987 22.3846C35.2924 21.9783 34.7413 21.75 34.1666 21.75H32M23.3333 18.5H27.6666M23.3333 22.8333H27.6666M23.3333 27.1667H27.6666M23.3333 31.5H27.6666" stroke="#001F3F" stroke-width="1.5" stroke-linecap="round" stroke-linejoin="round"/>
</svg>
