<svg width="50" height="50" viewBox="0 0 50 50" fill="none" xmlns="http://www.w3.org/2000/svg">
<rect width="50" height="50" rx="4" fill="#C6D6E6"/>
<path d="M33.0833 34.75V32.5833C33.0833 31.4341 32.6267 30.3319 31.8141 29.5192C31.0014 28.7065 29.8992 28.25 28.75 28.25H22.25C21.1007 28.25 19.9985 28.7065 19.1858 29.5192C18.3732 30.3319 17.9166 31.4341 17.9166 32.5833V34.75M29.8333 19.5833C29.8333 21.9766 27.8932 23.9167 25.5 23.9167C23.1067 23.9167 21.1666 21.9766 21.1666 19.5833C21.1666 17.1901 23.1067 15.25 25.5 15.25C27.8932 15.25 29.8333 17.1901 29.8333 19.5833Z" stroke="#001F3F" stroke-width="1.5" stroke-linecap="round" stroke-linejoin="round"/>
</svg>
