<svg width="50" height="50" viewBox="0 0 50 50" fill="none" xmlns="http://www.w3.org/2000/svg">
<rect width="50" height="50" rx="4" fill="#C6D6E6"/>
<path d="M21.5001 25L23.8334 27.3333L28.5001 22.6667M34.3334 26.1666C34.3334 32 30.2501 34.9166 25.3967 36.6083C25.1426 36.6944 24.8665 36.6903 24.6151 36.5966C19.7501 34.9166 15.6667 32 15.6667 26.1666V18C15.6667 17.6905 15.7897 17.3938 16.0085 17.175C16.2272 16.9562 16.524 16.8333 16.8334 16.8333C19.1667 16.8333 22.0834 15.4333 24.1134 13.66C24.3606 13.4488 24.675 13.3328 25.0001 13.3328C25.3252 13.3328 25.6396 13.4488 25.8867 13.66C27.9284 15.445 30.8334 16.8333 33.1667 16.8333C33.4762 16.8333 33.7729 16.9562 33.9917 17.175C34.2105 17.3938 34.3334 17.6905 34.3334 18V26.1666Z" stroke="#001F3F" stroke-width="1.5" stroke-linecap="round" stroke-linejoin="round"/>
</svg>
