<svg width="50" height="50" viewBox="0 0 50 50" fill="none" xmlns="http://www.w3.org/2000/svg">
<rect width="50" height="50" rx="4" fill="#C6D6E6"/>
<path d="M14.6666 19.5834L19.4441 14.8059C19.6457 14.6031 19.8854 14.4422 20.1494 14.3325C20.4134 14.2228 20.6966 14.1665 20.9825 14.1667H30.0175C30.3034 14.1665 30.5865 14.2228 30.8505 14.3325C31.1145 14.4422 31.3542 14.6031 31.5558 14.8059L36.3333 19.5834M14.6666 19.5834H36.3333M14.6666 19.5834V22.8334C14.6666 23.408 14.8949 23.9591 15.3012 24.3654C15.7076 24.7717 16.2587 25 16.8333 25M36.3333 19.5834V22.8334C36.3333 23.408 36.105 23.9591 35.6987 24.3654C35.2924 24.7717 34.7413 25 34.1666 25M16.8333 25V33.6667C16.8333 34.2413 17.0616 34.7924 17.4679 35.1988C17.8742 35.6051 18.4253 35.8334 19 35.8334H32C32.5746 35.8334 33.1257 35.6051 33.532 35.1988C33.9384 34.7924 34.1666 34.2413 34.1666 33.6667V25M16.8333 25C17.4662 24.9652 18.0708 24.7257 18.5558 24.3175C18.6851 24.2241 18.8405 24.1738 19 24.1738C19.1594 24.1738 19.3149 24.2241 19.4441 24.3175C19.9292 24.7257 20.5337 24.9652 21.1666 25C21.7996 24.9652 22.4041 24.7257 22.8891 24.3175C23.0184 24.2241 23.1738 24.1738 23.3333 24.1738C23.4928 24.1738 23.6482 24.2241 23.7775 24.3175C24.2625 24.7257 24.867 24.9652 25.5 25C26.1329 24.9652 26.7374 24.7257 27.2225 24.3175C27.3517 24.2241 27.5071 24.1738 27.6666 24.1738C27.8261 24.1738 27.9815 24.2241 28.1108 24.3175C28.5958 24.7257 29.2003 24.9652 29.8333 25C30.4662 24.9652 31.0708 24.7257 31.5558 24.3175C31.6851 24.2241 31.8405 24.1738 32 24.1738C32.1594 24.1738 32.3149 24.2241 32.4441 24.3175C32.9292 24.7257 33.5337 24.9652 34.1666 25M28.75 35.8334V31.5C28.75 30.9254 28.5217 30.3743 28.1154 29.968C27.709 29.5616 27.1579 29.3334 26.5833 29.3334H24.4166C23.842 29.3334 23.2909 29.5616 22.8846 29.968C22.4782 30.3743 22.25 30.9254 22.25 31.5V35.8334" stroke="#001F3F" stroke-width="1.5" stroke-linecap="round" stroke-linejoin="round"/>
</svg>
