<svg width="50" height="50" viewBox="0 0 50 50" fill="none" xmlns="http://www.w3.org/2000/svg">
<rect width="50" height="50" rx="4" fill="#C6D6E6"/>
<path d="M14.5 23.8333H18C18.6188 23.8333 19.2123 24.0791 19.6499 24.5167C20.0875 24.9543 20.3333 25.5477 20.3333 26.1666V29.6666C20.3333 30.2854 20.0875 30.8789 19.6499 31.3165C19.2123 31.7541 18.6188 31.9999 18 31.9999H16.8333C16.2145 31.9999 15.621 31.7541 15.1834 31.3165C14.7458 30.8789 14.5 30.2854 14.5 29.6666V23.8333ZM14.5 23.8333C14.5 22.4544 14.7716 21.089 15.2993 19.8151C15.8269 18.5412 16.6004 17.3836 17.5754 16.4086C18.5504 15.4336 19.7079 14.6602 20.9818 14.1325C22.2557 13.6048 23.6211 13.3333 25 13.3333C26.3789 13.3333 27.7443 13.6048 29.0182 14.1325C30.2921 14.6602 31.4496 15.4336 32.4246 16.4086C33.3996 17.3836 34.1731 18.5412 34.7007 19.8151C35.2284 21.089 35.5 22.4544 35.5 23.8333M35.5 23.8333V29.6666M35.5 23.8333H32C31.3812 23.8333 30.7877 24.0791 30.3501 24.5167C29.9125 24.9543 29.6667 25.5477 29.6667 26.1666V29.6666C29.6667 30.2854 29.9125 30.8789 30.3501 31.3165C30.7877 31.7541 31.3812 31.9999 32 31.9999H33.1667C33.7855 31.9999 34.379 31.7541 34.8166 31.3165C35.2542 30.8789 35.5 30.2854 35.5 29.6666M35.5 29.6666V31.9999C35.5 33.2376 35.0083 34.4246 34.1332 35.2997C33.258 36.1749 32.071 36.6666 30.8333 36.6666H25" stroke="#001F3F" stroke-width="1.5" stroke-linecap="round" stroke-linejoin="round"/>
</svg>
