<svg width="50" height="50" viewBox="0 0 50 50" fill="none" xmlns="http://www.w3.org/2000/svg">
<rect width="50" height="50" rx="4" fill="#C6D6E6"/>
<path d="M27.6667 31.5V18.5C27.6667 17.9254 27.4385 17.3743 27.0321 16.9679C26.6258 16.5616 26.0747 16.3333 25.5001 16.3333H16.8334C16.2588 16.3333 15.7077 16.5616 15.3013 16.9679C14.895 17.3743 14.6667 17.9254 14.6667 18.5V30.4167C14.6667 30.704 14.7809 30.9795 14.984 31.1827C15.1872 31.3859 15.4628 31.5 15.7501 31.5H17.9167M17.9167 31.5C17.9167 32.6966 18.8868 33.6667 20.0834 33.6667C21.28 33.6667 22.2501 32.6966 22.2501 31.5M17.9167 31.5C17.9167 30.3034 18.8868 29.3333 20.0834 29.3333C21.28 29.3333 22.2501 30.3034 22.2501 31.5M28.7501 31.5H22.2501M28.7501 31.5C28.7501 32.6966 29.7201 33.6667 30.9167 33.6667C32.1134 33.6667 33.0834 32.6966 33.0834 31.5M28.7501 31.5C28.7501 30.3034 29.7201 29.3333 30.9167 29.3333C32.1134 29.3333 33.0834 30.3034 33.0834 31.5M33.0834 31.5H35.2501C35.5374 31.5 35.813 31.3859 36.0161 31.1827C36.2193 30.9795 36.3334 30.704 36.3334 30.4167V26.4625C36.333 26.2167 36.2489 25.9783 36.0951 25.7865L32.3251 21.074C32.2238 20.9471 32.0952 20.8446 31.949 20.7741C31.8027 20.7036 31.6425 20.6669 31.4801 20.6667H27.6667" stroke="#001F3F" stroke-width="1.5" stroke-linecap="round" stroke-linejoin="round"/>
</svg>
