<svg width="50" height="50" viewBox="0 0 50 50" fill="none" xmlns="http://www.w3.org/2000/svg">
<rect width="50" height="50" rx="4" fill="#C6D6E6"/>
<path d="M31.7833 32.8L29.8333 23.9167L33.625 20.125C35.25 18.5 35.7917 16.3333 35.25 15.25C34.1667 14.7083 32 15.25 30.375 16.875L26.5833 20.6667L17.7 18.7167C17.1583 18.6083 16.725 18.825 16.5083 19.2583L16.1833 19.8C15.9667 20.3417 16.075 20.8833 16.5083 21.2083L22.25 25L20.0833 28.25H16.8333L15.75 29.3333L19 31.5L21.1667 34.75L22.25 33.6667V30.4167L25.5 28.25L29.2917 33.9917C29.6167 34.425 30.1583 34.5333 30.7 34.3167L31.2417 34.1C31.675 33.775 31.8917 33.3417 31.7833 32.8Z" stroke="#001F3F" stroke-width="1.5" stroke-linecap="round" stroke-linejoin="round"/>
</svg>
