<svg width="52" height="52" viewBox="0 0 52 52" fill="none" xmlns="http://www.w3.org/2000/svg">
<rect width="52" height="52" rx="10" fill="url(#paint0_linear_242_2011)"/>
<path d="M31 37.25V34.75C31 33.4239 30.4732 32.1521 29.5355 31.2145C28.5979 30.2768 27.3261 29.75 26 29.75H18.5C17.1739 29.75 15.9021 30.2768 14.9645 31.2145C14.0268 32.1521 13.5 33.4239 13.5 34.75V37.25M38.5 37.2499V34.7499C38.4992 33.642 38.1304 32.5658 37.4517 31.6902C36.773 30.8147 35.8227 30.1893 34.75 29.9124M31 14.9124C32.0755 15.1877 33.0288 15.8132 33.7095 16.6902C34.3903 17.5673 34.7598 18.6459 34.7598 19.7561C34.7598 20.8663 34.3903 21.945 33.7095 22.822C33.0288 23.699 32.0755 24.3245 31 24.5999M27.25 19.75C27.25 22.5114 25.0114 24.75 22.25 24.75C19.4886 24.75 17.25 22.5114 17.25 19.75C17.25 16.9886 19.4886 14.75 22.25 14.75C25.0114 14.75 27.25 16.9886 27.25 19.75Z" stroke="white" stroke-width="1.5" stroke-linecap="round" stroke-linejoin="round"/>
<defs>
<linearGradient id="paint0_linear_242_2011" x1="4.13507e-07" y1="52" x2="52" y2="-3.5" gradientUnits="userSpaceOnUse">
<stop stop-color="#009688"/>
<stop offset="1" stop-color="#A2AA31"/>
</linearGradient>
</defs>
</svg>
