<svg width="52" height="52" viewBox="0 0 52 52" fill="none" xmlns="http://www.w3.org/2000/svg">
<rect width="52" height="52" rx="26" fill="white"/>
<path d="M18 28C17.8108 28.0006 17.6252 27.9476 17.4649 27.847C17.3047 27.7464 17.1762 27.6023 17.0945 27.4316C17.0129 27.2609 16.9813 27.0706 17.0035 26.8826C17.0257 26.6947 17.1008 26.5169 17.22 26.37L27.12 16.17C27.1943 16.0843 27.2955 16.0263 27.407 16.0057C27.5185 15.9851 27.6337 16.003 27.7337 16.0565C27.8337 16.11 27.9126 16.1959 27.9573 16.3001C28.0021 16.4043 28.0101 16.5206 27.98 16.63L26.06 22.65C26.0034 22.8015 25.9844 22.9645 26.0046 23.125C26.0248 23.2855 26.0837 23.4387 26.1761 23.5714C26.2685 23.7042 26.3918 23.8125 26.5353 23.8871C26.6788 23.9618 26.8382 24.0005 27 24H34C34.1892 23.9993 34.3748 24.0524 34.535 24.153C34.6953 24.2536 34.8238 24.3976 34.9054 24.5683C34.9871 24.739 35.0187 24.9294 34.9965 25.1173C34.9743 25.3053 34.8992 25.483 34.78 25.63L24.88 35.83C24.8057 35.9157 24.7045 35.9736 24.593 35.9942C24.4815 36.0149 24.3663 35.997 24.2663 35.9435C24.1663 35.89 24.0874 35.8041 24.0427 35.6999C23.9979 35.5957 23.9899 35.4793 24.02 35.37L25.94 29.35C25.9966 29.1985 26.0156 29.0355 25.9954 28.875C25.9752 28.7145 25.9163 28.5613 25.8239 28.4286C25.7315 28.2958 25.6082 28.1875 25.4647 28.1128C25.3212 28.0382 25.1617 27.9995 25 28H18Z" stroke="#B6288E" stroke-width="1.5" stroke-linecap="round" stroke-linejoin="round"/>
</svg>
