<svg width="52" height="52" viewBox="0 0 52 52" fill="none" xmlns="http://www.w3.org/2000/svg">
<rect width="52" height="52" rx="10" fill="url(#paint0_linear_242_1879)"/>
<path d="M18.5 38.5V16C18.5 15.337 18.7634 14.7011 19.2322 14.2322C19.7011 13.7634 20.337 13.5 21 13.5H31C31.663 13.5 32.2989 13.7634 32.7678 14.2322C33.2366 14.7011 33.5 15.337 33.5 16V38.5M18.5 38.5H33.5M18.5 38.5H16C15.337 38.5 14.7011 38.2366 14.2322 37.7678C13.7634 37.2989 13.5 36.663 13.5 36V28.5C13.5 27.837 13.7634 27.2011 14.2322 26.7322C14.7011 26.2634 15.337 26 16 26H18.5M33.5 38.5H36C36.663 38.5 37.2989 38.2366 37.7678 37.7678C38.2366 37.2989 38.5 36.663 38.5 36V24.75C38.5 24.087 38.2366 23.4511 37.7678 22.9822C37.2989 22.5134 36.663 22.25 36 22.25H33.5M23.5 18.5H28.5M23.5 23.5H28.5M23.5 28.5H28.5M23.5 33.5H28.5" stroke="white" stroke-width="1.5" stroke-linecap="round" stroke-linejoin="round"/>
<defs>
<linearGradient id="paint0_linear_242_1879" x1="4.13507e-07" y1="52" x2="52" y2="-3.5" gradientUnits="userSpaceOnUse">
<stop stop-color="#009688"/>
<stop offset="1" stop-color="#A2AA31"/>
</linearGradient>
</defs>
</svg>
