<svg width="52" height="52" viewBox="0 0 52 52" fill="none" xmlns="http://www.w3.org/2000/svg">
<rect width="52" height="52" rx="26" fill="white"/>
<path d="M22.25 26L24.75 28.5L29.75 23.5M36 27.25C36 33.5 31.625 36.625 26.425 38.4375C26.1527 38.5297 25.8569 38.5253 25.5875 38.425C20.375 36.625 16 33.5 16 27.25V18.5C16 18.1684 16.1317 17.8505 16.3661 17.6161C16.6005 17.3816 16.9185 17.25 17.25 17.25C19.75 17.25 22.875 15.75 25.05 13.85C25.3148 13.6237 25.6517 13.4994 26 13.4994C26.3483 13.4994 26.6852 13.6237 26.95 13.85C29.1375 15.7625 32.25 17.25 34.75 17.25C35.0815 17.25 35.3995 17.3816 35.6339 17.6161C35.8683 17.8505 36 18.1684 36 18.5V27.25Z" stroke="#009688" stroke-width="1.5" stroke-linecap="round" stroke-linejoin="round"/>
</svg>
