<svg width="22" height="21" viewBox="0 0 22 21" fill="none" xmlns="http://www.w3.org/2000/svg">
<path d="M10.5091 0.254721C10.7003 -0.0846012 11.189 -0.0846015 11.3802 0.254721L14.6411 6.04015C14.7125 6.16674 14.8354 6.25602 14.9778 6.28476L21.4878 7.59828C21.8696 7.67532 22.0206 8.14004 21.757 8.42679L17.2624 13.3159C17.164 13.4229 17.1171 13.5673 17.1338 13.7117L17.8962 20.3089C17.941 20.6959 17.5456 20.9831 17.1915 20.821L11.1527 18.0572C11.0206 17.9967 10.8687 17.9967 10.7366 18.0572L4.69785 20.821C4.34368 20.9831 3.94836 20.6959 3.99308 20.3089L4.75554 13.7117C4.77222 13.5673 4.72528 13.4229 4.62694 13.3159L0.132343 8.42679C-0.13127 8.14004 0.0197271 7.67532 0.401543 7.59828L6.91149 6.28476C7.05393 6.25602 7.17682 6.16674 7.24817 6.04015L10.5091 0.254721Z" fill="#F1B51D"/>
</svg>
